<svg width="80" height="138" viewBox="0 0 80 138" fill="none" xmlns="http://www.w3.org/2000/svg">
<g clip-path="url(#clip0_2_22)">
<path d="M0 107.022V22.9334L13.3541 15.2764L39.9991 0L66.646 15.2764L80.0001 22.9334V114.667L39.9991 137.6L0 114.667V107.022Z" fill="white"/>
<path d="M0.000240107 107.022V68.8014H0.00202231L33.3333 87.9128L0.000240107 107.023L6.66645 110.845L39.9992 91.7354L73.3342 110.845L80.0005 107.024V114.667L39.9992 137.6L0.000197673 114.667L0.000240107 107.022ZM80.0005 68.8014V107.023L46.6656 87.9128L80.0005 68.8014ZM66.646 15.2766L39.9992 0.00012207L13.3546 15.2766L0.000152588 22.9337V68.8009H0.00197988L6.66645 64.9784L39.9992 84.0881L40.0014 84.0864V76.4452L39.9992 45.8674L13.3763 30.6016L39.9992 15.3377L66.6265 30.6034L66.646 30.6142V61.167L53.332 68.8009V76.4452L73.3342 64.9784L80.0005 68.8009V22.9337L66.646 15.2766ZM23.9025 48.3717C27.4925 48.0964 30.6267 50.763 30.9052 54.328C31.1824 57.8933 28.4975 61.0052 24.9071 61.2805C21.3171 61.5554 18.1829 58.8892 17.9061 55.326C17.6289 51.7606 20.3138 48.6487 23.9025 48.3717Z" fill="#231F20"/>
<path d="M48.3932 50.6698L55.5901 46.5439L62.8131 50.6849V58.9375L66.9766 61.3241L66.2814 62.5201L61.4491 59.7496L55.5901 63.1096L48.3666 58.9673V52.249L12.4237 31.6422L13.119 30.4464L48.3932 50.6698Z" fill="#231F20"/>
</g>
<defs>
<clipPath id="clip0_2_22">
<rect width="80" height="137.6" fill="white"/>
</clipPath>
</defs>
</svg>
